<?xml version="1.0" encoding="UTF-8"?>
<svg width="2490px" height="2523px" viewBox="0 0 2490 2523" version="1.1" xmlns="http://www.w3.org/2000/svg" xmlns:xlink="http://www.w3.org/1999/xlink">
    <!-- Generator: Sketch 58 (84663) - https://sketch.com -->
    <title>release</title>
    <desc>Created with Sketch.</desc>
    <g id="release" stroke="none" stroke-width="1" fill="none" fill-rule="evenodd">
        <g id="box" transform="translate(1466.000000, 1085.000000)">
            <g id="Path">
                <path d="M439.98041,1050.56196 L24.0129452,810.333878 C9.15158545,801.751297 0,785.89324 0,768.728078 L0,288.271922 C0,271.10676 9.15158545,255.244272 24.0129452,246.666122 L439.98041,6.43804338 C447.413305,2.14453751 455.705545,0 463.997785,0 C472.290025,0 480.582265,2.14453751 488.01516,6.43804338 L903.982625,246.666122 C918.848415,255.244272 928,271.10676 928,288.271922 L928,768.728078 C928,785.89324 918.848415,801.751297 903.982625,810.333878 L488.01516,1050.56196 C480.582265,1054.85546 472.290025,1057 463.997785,1057 C455.705545,1057 447.413305,1054.85546 439.98041,1050.56196 Z" stroke="#FFFFFF" stroke-width="20" fill="#6F6F6F"></path>
                <polyline fill="#5A5A5A" points="834 388 514 572.671096 514 942 834 757.333333 834 388"></polyline>
                <polyline fill="#5A5A5A" points="98 388 98 757.333333 418 942 418 572.671096 98 388"></polyline>
                <polygon fill="#5A5A5A" points="146 305 466 490 786 305 466 120"></polygon>
            </g>
        </g>
        <g id="box" transform="translate(10.000000, 1085.000000)">
            <g id="Path">
                <path d="M439.98041,1050.56196 L24.0129452,810.333878 C9.15158545,801.751297 0,785.89324 0,768.728078 L0,288.271922 C0,271.10676 9.15158545,255.244272 24.0129452,246.666122 L439.98041,6.43804338 C447.413305,2.14453751 455.705545,0 463.997785,0 C472.290025,0 480.582265,2.14453751 488.01516,6.43804338 L903.982625,246.666122 C918.848415,255.244272 928,271.10676 928,288.271922 L928,768.728078 C928,785.89324 918.848415,801.751297 903.982625,810.333878 L488.01516,1050.56196 C480.582265,1054.85546 472.290025,1057 463.997785,1057 C455.705545,1057 447.413305,1054.85546 439.98041,1050.56196 Z" stroke="#FFFFFF" stroke-width="20" fill="#6F6F6F"></path>
                <polyline fill="#5A5A5A" points="834 388 514 572.671096 514 942 834 757.333333 834 388"></polyline>
                <polyline fill="#5A5A5A" points="98 388 98 757.333333 418 942 418 572.671096 98 388"></polyline>
                <polygon fill="#5A5A5A" points="146 305 466 490 786 305 466 120"></polygon>
            </g>
        </g>
        <g id="box" transform="translate(724.000000, 1456.000000)">
            <g id="Path">
                <path d="M439.98041,1050.56196 L24.0129452,810.333878 C9.15158545,801.751297 0,785.89324 0,768.728078 L0,288.271922 C0,271.10676 9.15158545,255.244272 24.0129452,246.666122 L439.98041,6.43804338 C447.413305,2.14453751 455.705545,0 463.997785,0 C472.290025,0 480.582265,2.14453751 488.01516,6.43804338 L903.982625,246.666122 C918.848415,255.244272 928,271.10676 928,288.271922 L928,768.728078 C928,785.89324 918.848415,801.751297 903.982625,810.333878 L488.01516,1050.56196 C480.582265,1054.85546 472.290025,1057 463.997785,1057 C455.705545,1057 447.413305,1054.85546 439.98041,1050.56196 Z" stroke="#FFFFFF" stroke-width="20" fill="#6F6F6F"></path>
                <polyline fill="#5A5A5A" points="834 388 514 572.671096 514 942 834 757.333333 834 388"></polyline>
                <polyline fill="#5A5A5A" points="98 388 98 757.333333 418 942 418 572.671096 98 388"></polyline>
                <polygon fill="#5A5A5A" points="146 305 466 490 786 305 466 120"></polygon>
            </g>
        </g>
        <g id="box" transform="translate(724.000000, 10.000000)">
            <g id="Path">
                <path d="M439.98041,1050.56196 L24.0129452,810.333878 C9.15158545,801.751297 0,785.89324 0,768.728078 L0,288.271922 C0,271.10676 9.15158545,255.244272 24.0129452,246.666122 L439.98041,6.43804338 C447.413305,2.14453751 455.705545,0 463.997785,0 C472.290025,0 480.582265,2.14453751 488.01516,6.43804338 L903.982625,246.666122 C918.848415,255.244272 928,271.10676 928,288.271922 L928,768.728078 C928,785.89324 918.848415,801.751297 903.982625,810.333878 L488.01516,1050.56196 C480.582265,1054.85546 472.290025,1057 463.997785,1057 C455.705545,1057 447.413305,1054.85546 439.98041,1050.56196 Z" stroke="#FFFFFF" stroke-width="20" fill="#6F6F6F"></path>
                <polyline fill="#5A5A5A" points="834 388 514 572.671096 514 942 834 757.333333 834 388"></polyline>
                <polyline fill="#5A5A5A" points="98 388 98 757.333333 418 942 418 572.671096 98 388"></polyline>
                <polygon fill="#5A5A5A" points="146 305 466 490 786 305 466 120"></polygon>
            </g>
        </g>
        <g id="box" transform="translate(13.000000, 318.000000)">
            <g id="Path">
                <path d="M439.98041,1050.56196 L24.0129452,810.333878 C9.15158545,801.751297 0,785.89324 0,768.728078 L0,288.271922 C0,271.10676 9.15158545,255.244272 24.0129452,246.666122 L439.98041,6.43804338 C447.413305,2.14453751 455.705545,0 463.997785,0 C472.290025,0 480.582265,2.14453751 488.01516,6.43804338 L903.982625,246.666122 C918.848415,255.244272 928,271.10676 928,288.271922 L928,768.728078 C928,785.89324 918.848415,801.751297 903.982625,810.333878 L488.01516,1050.56196 C480.582265,1054.85546 472.290025,1057 463.997785,1057 C455.705545,1057 447.413305,1054.85546 439.98041,1050.56196 Z" stroke="#FFFFFF" stroke-width="20" fill="#6F6F6F"></path>
                <polyline fill="#5A5A5A" points="834 388 514 572.671096 514 942 834 757.333333 834 388"></polyline>
                <polyline fill="#5A5A5A" points="98 388 98 757.333333 418 942 418 572.671096 98 388"></polyline>
                <polygon fill="#5A5A5A" points="146 305 466 490 786 305 466 120"></polygon>
            </g>
        </g>
        <g id="box" transform="translate(1557.000000, 171.000000)">
            <path d="M439.98041,1050.56196 L24.0129452,810.333878 C9.15158545,801.751297 0,785.89324 0,768.728078 L0,288.271922 C0,271.10676 9.15158545,255.244272 24.0129452,246.666122 L439.98041,6.43804338 C447.413305,2.14453751 455.705545,0 463.997785,0 C472.290025,0 480.582265,2.14453751 488.01516,6.43804338 L903.982625,246.666122 C918.848415,255.244272 928,271.10676 928,288.271922 L928,768.728078 C928,785.89324 918.848415,801.751297 903.982625,810.333878 L488.01516,1050.56196 C480.582265,1054.85546 472.290025,1057 463.997785,1057 C455.705545,1057 447.413305,1054.85546 439.98041,1050.56196 Z" id="Path" stroke="#FFFFFF" stroke-width="10" fill="#6ED25D"></path>
            <polyline id="Path" fill="#9DEC8F" points="834 388 514 572.671096 514 942 834 757.333333 834 388"></polyline>
            <polyline id="Path" fill="#9DEC8F" points="98 388 98 757.333333 418 942 418 572.671096 98 388"></polyline>
            <polygon id="Path" fill="#9DEC8F" points="146 305 466 490 786 305 466 120"></polygon>
        </g>
        <g id="box" transform="translate(724.000000, 727.000000)">
            <g id="Path">
                <path d="M439.98041,1050.56196 L24.0129452,810.333878 C9.15158545,801.751297 0,785.89324 0,768.728078 L0,288.271922 C0,271.10676 9.15158545,255.244272 24.0129452,246.666122 L439.98041,6.43804338 C447.413305,2.14453751 455.705545,0 463.997785,0 C472.290025,0 480.582265,2.14453751 488.01516,6.43804338 L903.982625,246.666122 C918.848415,255.244272 928,271.10676 928,288.271922 L928,768.728078 C928,785.89324 918.848415,801.751297 903.982625,810.333878 L488.01516,1050.56196 C480.582265,1054.85546 472.290025,1057 463.997785,1057 C455.705545,1057 447.413305,1054.85546 439.98041,1050.56196 Z" stroke="#FFFFFF" stroke-width="20" fill="#6F6F6F"></path>
                <polyline fill="#5A5A5A" points="834 388 514 572.671096 514 942 834 757.333333 834 388"></polyline>
                <polyline fill="#5A5A5A" points="98 388 98 757.333333 418 942 418 572.671096 98 388"></polyline>
                <polygon fill="#5A5A5A" points="146 305 466 490 786 305 466 120"></polygon>
            </g>
        </g>
    </g>
</svg>